/vscmnt/brussel_pixiu_data/_data_brussel/112/vsc11236/PredSimResults/SUBJ09opt3D/weighted-LRposFixed/trackIG/worker_04.mot
version=1
nRows=6
nColumns=50
inDegrees=yes
endheader
                time	         pelvis_tilt	         pelvis_list	     pelvis_rotation	           pelvis_tx	           pelvis_ty	           pelvis_tz	       hip_flexion_r	     hip_adduction_r	      hip_rotation_r	        knee_angle_r	       ankle_angle_r	         mtp_angle_r	       hip_flexion_l	     hip_adduction_l	      hip_rotation_l	        knee_angle_l	       ankle_angle_l	         mtp_angle_l	    lumbar_extension	      lumbar_bending	     lumbar_rotation	 ercspn_r/activation	 intobl_r/activation	 extobl_r/activation	    abd_r/activation	    add_r/activation	hamstrings_r/activation	bifemsh_r/activation	glut_max_r/activation	iliopsoas_r/activation	rect_fem_r/activation	  vasti_r/activation	gastroc_r/activation	 soleus_r/activation	tib_ant_r/activation	 ercspn_l/activation	 intobl_l/activation	 extobl_l/activation	    abd_l/activation	    add_l/activation	hamstrings_l/activation	bifemsh_l/activation	glut_max_l/activation	iliopsoas_l/activation	rect_fem_l/activation	  vasti_l/activation	gastroc_l/activation	 soleus_l/activation	tib_ant_l/activation	
          0.66780493	         -3.87330702	          1.42072746	         -7.96900877	          0.74794152	          0.99413587	          0.00174417	        -11.62218917	         -2.89932029	         -4.31370070	        -12.26054663	          5.08828870	         36.52590265	         23.96885203	         -0.06066603	         -5.93061970	          2.24032411	          2.70918836	          0.23092343	        -12.32113264	          1.26281596	         11.17345870	          0.00999999	          0.00999999	          0.00999999	          0.05034451	          0.00999999	          0.01219186	          0.27805024	          0.01827488	          0.00999999	          0.00999999	          0.00999999	          0.31519581	          0.25884431	          0.01222600	          0.03756061	          0.21383254	          0.04721232	          0.00999999	          0.26523524	          0.06178986	          0.00999999	          0.00999999	          0.09394649	          0.02342383	          0.03174224	          0.00999999	          0.00999999	          0.32823575	
          0.68116103	         -3.94077751	          1.62208058	         -7.93933386	          0.76817343	          0.99196322	          0.00073700	        -12.15750106	         -3.34163169	         -4.88538389	        -13.17523389	          4.03855674	         38.26186561	         23.57891406	          0.35020210	         -6.27412473	          1.34296383	          1.94191485	          0.23609706	        -11.66927063	          0.69622084	         11.36632499	          0.00999999	          0.00999999	          0.00999999	          0.04117818	          0.00999999	          0.03394870	          0.26089375	          0.01494753	          0.00999999	          0.00999999	          0.00999999	          0.28854151	          0.23621218	          0.00999999	          0.03072187	          0.17489960	          0.03861627	          0.00999999	          0.21694330	          0.06595670	          0.00999999	          0.05144072	          0.07684146	          0.01915901	          0.06503842	          0.01494753	          0.01494753	          0.34551585	
          0.69451713	         -3.98306237	          1.88085729	         -7.87246013	          0.78877810	          0.99000139	         -0.00026853	        -12.53679954	         -3.86173573	         -5.49423753	        -14.43253267	          2.84775662	         39.97535108	         23.05564385	          0.77577878	         -6.60183263	          0.40999679	          1.16906379	          0.21823301	        -10.99313098	          0.04662177	         11.49387552	          0.00999999	          0.00999999	          0.00999999	          0.03368078	          0.00999999	          0.03758609	          0.22948096	          0.01222600	          0.02576792	          0.00999999	          0.00999999	          0.24839230	          0.20589284	          0.00999999	          0.02512828	          0.14305527	          0.03158533	          0.08337399	          0.17744398	          0.07217825	          0.01222600	          0.05942171	          0.06285077	          0.01567069	          0.05319674	          0.01222600	          0.01222600	          0.41906964	
          0.70787323	         -4.00653791	          2.17267582	         -7.76769010	          0.80938033	          0.98854336	         -0.00135170	        -12.65984783	         -4.44437166	         -6.12803952	        -16.14762182	          1.46779280	         41.56444594	         22.40722206	          1.24840955	         -6.99397607	         -0.29100306	          0.24998226	          0.18409359	        -10.33735539	         -0.64779249	         11.55754017	          0.01527935	          0.00999999	          0.00999999	          0.02754845	          0.00999999	          0.05629619	          0.18769888	          0.00999999	          0.05065893	          0.00999999	          0.00999999	          0.20316699	          0.16840550	          0.00999999	          0.02055312	          0.11700889	          0.02583452	          0.13807507	          0.14945611	          0.07160411	          0.00999999	          0.07056510	          0.05140740	          0.01281749	          0.04351110	          0.00999999	          0.00999999	          0.46486321	
          0.72122933	         -4.01539876	          2.48780197	         -7.63385932	          0.82959990	          0.98783190	         -0.00251567	        -12.44012253	         -5.09113414	         -6.77513269	        -18.41719997	         -0.08262668	         42.79241097	         21.73504751	          1.75301676	         -7.38977871	         -0.99332130	         -0.35378252	          0.14311851	         -9.74360749	         -1.37452340	         11.56322902	          0.08047223	          0.00999999	          0.00999999	          0.02253265	          0.01486244	          0.07131090	          0.15352415	          0.00999999	          0.04143536	          0.00999999	          0.00999999	          0.16617595	          0.13774356	          0.00999999	          0.01681097	          0.09570484	          0.02113077	          0.19799064	          0.12224433	          0.06963243	          0.00999999	          0.09386914	          0.04204755	          0.01048378	          0.04563849	          0.00999999	          0.00999999	          0.48140451	
          0.73458543	         -4.01434045	          2.81199842	         -7.48069609	          0.84913099	          0.98810032	         -0.00374224	        -11.82272983	         -5.79726309	         -7.45322981	        -21.28409664	         -1.73193657	         43.25361932	         21.07046725	          2.27378584	         -7.70878710	         -1.72827407	         -0.55117082	          0.10629579	         -9.24078703	         -2.11455069	         11.51872471	          0.07949211	          0.00999999	          0.00999999	          0.01843008	          0.08375183	          0.07400680	          0.12557169	          0.00999999	          0.08396340	          0.00999999	          0.00999999	          0.13591995	          0.11266430	          0.00999999	          0.01769977	          0.07827966	          0.01728345	          0.21581339	          0.13557897	          0.07130206	          0.00999999	          0.12435396	          0.03439186	          0.00999999	          0.08253202	          0.00999999	          0.00999999	          0.46158845	
